<svg width="26" height="24" viewBox="0 0 26 24" fill="none" xmlns="http://www.w3.org/2000/svg">
<path d="M12.92 0C6.15459 0 0.440002 5.4948 0.440002 12C0.440002 18.5052 6.15459 24 12.92 24C19.6854 24 25.4 18.5052 25.4 12C25.4 5.4948 19.6854 0 12.92 0ZM12.92 6C15.0753 6 16.664 7.5264 16.664 9.6C16.664 11.6736 15.0753 13.2 12.92 13.2C10.766 13.2 9.176 11.6736 9.176 9.6C9.176 7.5264 10.766 6 12.92 6ZM6.54771 17.7264C7.66717 16.1424 9.53418 15.0864 11.672 15.0864H14.168C16.3071 15.0864 18.1728 16.1424 19.2923 17.7264C17.6973 19.368 15.4347 20.4 12.92 20.4C10.4053 20.4 8.14266 19.368 6.54771 17.7264Z" fill="#B8B8B8"/>
</svg>
