<svg width="25" height="20" viewBox="0 0 25 20" fill="none" xmlns="http://www.w3.org/2000/svg">
<g clip-path="url(#clip0_49_367)">
<path d="M13.7272 9.98314L16.0928 12.6871L19.2741 14.7198L19.8274 10.0002L19.2741 5.38702L16.0319 7.17271L13.7272 9.98314Z" fill="#00832D"/>
<path d="M0 14.2806V18.3024C0 19.2206 0.745403 19.9662 1.66389 19.9662H5.68569L6.51848 16.9275L5.68569 14.2806L2.92645 13.4478L9.47867e-05 14.2806H0Z" fill="#0066DA"/>
<path d="M5.68569 0L0 5.68569L2.92664 6.51649L5.68569 5.68569L6.50332 3.07479L5.68569 0Z" fill="#E94235"/>
<path d="M0.00012207 14.2824H5.68571V5.68561H0.00012207V14.2824Z" fill="#2684FC"/>
<path d="M22.9061 2.40741L19.2739 5.38713V14.7198L22.921 17.7111C23.467 18.1388 24.2657 17.749 24.2657 17.055V3.05026C24.2657 2.34855 23.448 1.96068 22.906 2.40751" fill="#00AC47"/>
<path d="M13.7272 9.98315V14.2806H5.68567V19.9663H17.6102C18.5287 19.9663 19.274 19.2207 19.274 18.3024V14.7198L13.7272 9.98315Z" fill="#00AC47"/>
<path d="M17.6102 0H5.68567V5.68569H13.7272V9.98313L19.2741 5.38692V1.66398C19.2741 0.745498 18.5287 9.47867e-05 17.6102 9.47867e-05" fill="#FFBA00"/>
</g>
<defs>
<clipPath id="clip0_49_367">
<rect width="24.2654" height="20" fill="white"/>
</clipPath>
</defs>
</svg>
