<svg width="21" height="24" viewBox="0 0 21 24" fill="none" xmlns="http://www.w3.org/2000/svg">
<path fill-rule="evenodd" clip-rule="evenodd" d="M0 2.51467C0 1.9968 0.158035 1.50013 0.43934 1.13393C0.720644 0.767738 1.10218 0.562012 1.5 0.562012H19.5C19.8978 0.562012 20.2794 0.767738 20.5607 1.13393C20.842 1.50013 21 1.9968 21 2.51467C21 3.03255 20.842 3.52922 20.5607 3.89542C20.2794 4.26161 19.8978 4.46734 19.5 4.46734H1.5C1.10218 4.46734 0.720644 4.26161 0.43934 3.89542C0.158035 3.52922 0 3.03255 0 2.51467Z" fill="white"/>
<path fill-rule="evenodd" clip-rule="evenodd" d="M0 12.2779C0 11.76 0.158035 11.2633 0.43934 10.8971C0.720644 10.5309 1.10218 10.3252 1.5 10.3252H19.5C19.8978 10.3252 20.2794 10.5309 20.5607 10.8971C20.842 11.2633 21 11.76 21 12.2779C21 12.7957 20.842 13.2924 20.5607 13.6586C20.2794 14.0248 19.8978 14.2305 19.5 14.2305H1.5C1.10218 14.2305 0.720644 14.0248 0.43934 13.6586C0.158035 13.2924 0 12.7957 0 12.2779Z" fill="white"/>
<path fill-rule="evenodd" clip-rule="evenodd" d="M9 22.0415C9 21.5237 9.15804 21.027 9.43934 20.6608C9.72064 20.2946 10.1022 20.0889 10.5 20.0889H19.5C19.8978 20.0889 20.2794 20.2946 20.5607 20.6608C20.842 21.027 21 21.5237 21 22.0415C21 22.5594 20.842 23.0561 20.5607 23.4223C20.2794 23.7885 19.8978 23.9942 19.5 23.9942H10.5C10.1022 23.9942 9.72064 23.7885 9.43934 23.4223C9.15804 23.0561 9 22.5594 9 22.0415Z" fill="white"/>
</svg>
