<svg width="25" height="22" viewBox="0 0 25 22" fill="none" xmlns="http://www.w3.org/2000/svg">
<path d="M23.165 0.921875H1.71498C1.26245 0.921875 0.828461 1.09473 0.508477 1.4024C0.188493 1.71008 0.00872803 2.12738 0.00872803 2.5625V19.4375C0.00872803 19.8726 0.188493 20.2899 0.508477 20.5976C0.828461 20.9053 1.26245 21.0781 1.71498 21.0781H3.3481C3.48567 21.078 3.6204 21.0405 3.73682 20.97C3.85324 20.8995 3.94661 20.7989 4.00623 20.6797C4.49975 19.6763 5.27952 18.8283 6.25477 18.2345C7.23002 17.6407 8.36063 17.3254 9.51498 17.3254C10.6693 17.3254 11.7999 17.6407 12.7752 18.2345C13.7504 18.8283 14.5302 19.6763 15.0237 20.6797C15.0833 20.7989 15.1767 20.8995 15.2931 20.97C15.4096 21.0405 15.5443 21.078 15.6819 21.0781H23.165C23.6175 21.0781 24.0515 20.9053 24.3715 20.5976C24.6915 20.2899 24.8712 19.8726 24.8712 19.4375V2.5625C24.8712 2.12738 24.6915 1.71008 24.3715 1.4024C24.0515 1.09473 23.6175 0.921875 23.165 0.921875ZM6.34623 12.875C6.34623 12.2724 6.53207 11.6833 6.88026 11.1822C7.22845 10.6812 7.72334 10.2907 8.30235 10.0601C8.88136 9.82944 9.51849 9.76911 10.1332 9.88667C10.7478 10.0042 11.3125 10.2944 11.7556 10.7205C12.1988 11.1466 12.5006 11.6895 12.6228 12.2806C12.7451 12.8716 12.6824 13.4842 12.4425 14.041C12.2027 14.5977 11.7965 15.0736 11.2754 15.4084C10.7543 15.7432 10.1417 15.9219 9.51498 15.9219C8.67556 15.9188 7.87144 15.5968 7.27788 15.0261C6.68432 14.4553 6.34944 13.6821 6.34623 12.875V12.875ZM23.4087 19.4375C23.4087 19.4997 23.383 19.5593 23.3373 19.6032C23.2916 19.6472 23.2296 19.6719 23.165 19.6719H16.1328C15.2796 18.2001 13.9232 17.0573 12.2937 16.4375C13.0713 15.8767 13.6457 15.0949 13.9356 14.2028C14.2254 13.3107 14.2159 12.3535 13.9086 11.4668C13.6012 10.5801 13.0115 9.80893 12.2229 9.26244C11.4344 8.71595 10.487 8.42188 9.51498 8.42188C8.54296 8.42188 7.59558 8.71595 6.80704 9.26244C6.0185 9.80893 5.42877 10.5801 5.12139 11.4668C4.81401 12.3535 4.80456 13.3107 5.09439 14.2028C5.38421 15.0949 5.95861 15.8767 6.73623 16.4375C5.10671 17.0573 3.75034 18.2001 2.89717 19.6719H1.71498C1.65129 19.669 1.591 19.6434 1.54591 19.6001C1.50083 19.5567 1.4742 19.4987 1.47123 19.4375V2.5625C1.47123 2.50034 1.49691 2.44073 1.54262 2.39677C1.58833 2.35282 1.65033 2.32812 1.71498 2.32812H23.165C23.2296 2.32812 23.2916 2.35282 23.3373 2.39677C23.383 2.44073 23.4087 2.50034 23.4087 2.5625V19.4375ZM20.9712 5.375V16.625C20.9712 16.8115 20.8942 16.9903 20.757 17.1222C20.6199 17.254 20.4339 17.3281 20.24 17.3281H18.29C18.096 17.3281 17.91 17.254 17.7729 17.1222C17.6358 16.9903 17.5587 16.8115 17.5587 16.625C17.5587 16.4385 17.6358 16.2597 17.7729 16.1278C17.91 15.996 18.096 15.9219 18.29 15.9219H19.5087V6.07812H5.37123V7.25C5.37123 7.43648 5.29419 7.61532 5.15705 7.74718C5.01991 7.87905 4.83392 7.95312 4.63998 7.95312C4.44604 7.95312 4.26004 7.87905 4.12291 7.74718C3.98577 7.61532 3.90873 7.43648 3.90873 7.25V5.375C3.90873 5.18852 3.98577 5.00968 4.12291 4.87782C4.26004 4.74595 4.44604 4.67188 4.63998 4.67188H20.24C20.4339 4.67188 20.6199 4.74595 20.757 4.87782C20.8942 5.00968 20.9712 5.18852 20.9712 5.375Z" fill="white"/>
</svg>
